<mxfile host="Electron" agent="Mozilla/5.0 (X11; Linux x86_64) AppleWebKit/537.36 (KHTML, like Gecko) draw.io/24.7.8 Chrome/128.0.6613.36 Electron/32.0.1 Safari/537.36" version="24.7.8">
  <diagram name="Page-1" id="c_mexxKXrGdVX50q4zJp">
    <mxGraphModel dx="1050" dy="622" grid="1" gridSize="10" guides="1" tooltips="1" connect="1" arrows="1" fold="1" page="1" pageScale="1" pageWidth="850" pageHeight="1100" math="0" shadow="0">
      <root>
        <mxCell id="0" />
        <mxCell id="1" parent="0" />
        <mxCell id="jbBLu7pFhBzQeB2QMWu_-7" value="Silos (Storage)" style="swimlane;whiteSpace=wrap;html=1;" vertex="1" parent="1">
          <mxGeometry x="240" y="80" width="259.4" height="180" as="geometry" />
        </mxCell>
        <mxCell id="jbBLu7pFhBzQeB2QMWu_-6" value="Redis&lt;div&gt;Ephemeral Storage&lt;/div&gt;" style="outlineConnect=0;dashed=0;verticalLabelPosition=bottom;verticalAlign=top;align=center;html=1;shape=mxgraph.aws3.redis;fillColor=#2E73B8;gradientColor=none;" vertex="1" parent="jbBLu7pFhBzQeB2QMWu_-7">
          <mxGeometry x="159.70000000000002" y="51.599999999999994" width="60" height="63" as="geometry" />
        </mxCell>
        <mxCell id="jbBLu7pFhBzQeB2QMWu_-24" value="MongoDb&lt;div&gt;Persistenant Storage&lt;/div&gt;" style="dashed=0;outlineConnect=0;html=1;align=center;labelPosition=center;verticalLabelPosition=bottom;verticalAlign=top;shape=mxgraph.webicons.mongodb;gradientColor=#DFDEDE" vertex="1" parent="jbBLu7pFhBzQeB2QMWu_-7">
          <mxGeometry x="40" y="55.5" width="59.7" height="69" as="geometry" />
        </mxCell>
        <mxCell id="jbBLu7pFhBzQeB2QMWu_-32" style="edgeStyle=orthogonalEdgeStyle;rounded=0;orthogonalLoop=1;jettySize=auto;html=1;exitX=0.5;exitY=1;exitDx=0;exitDy=0;exitPerimeter=0;" edge="1" parent="1" source="jbBLu7pFhBzQeB2QMWu_-38" target="jbBLu7pFhBzQeB2QMWu_-11">
          <mxGeometry relative="1" as="geometry">
            <mxPoint x="720" y="203.9450454545455" as="sourcePoint" />
          </mxGeometry>
        </mxCell>
        <mxCell id="jbBLu7pFhBzQeB2QMWu_-33" style="edgeStyle=orthogonalEdgeStyle;rounded=0;orthogonalLoop=1;jettySize=auto;html=1;exitX=0.5;exitY=0;exitDx=0;exitDy=0;exitPerimeter=0;" edge="1" parent="1" source="jbBLu7pFhBzQeB2QMWu_-38" target="jbBLu7pFhBzQeB2QMWu_-24">
          <mxGeometry relative="1" as="geometry">
            <mxPoint x="720" y="126.05495454545456" as="sourcePoint" />
            <Array as="points">
              <mxPoint x="720" y="110" />
              <mxPoint x="310" y="110" />
            </Array>
          </mxGeometry>
        </mxCell>
        <mxCell id="jbBLu7pFhBzQeB2QMWu_-40" value="Updates Persistent Data" style="edgeLabel;html=1;align=center;verticalAlign=middle;resizable=0;points=[];" vertex="1" connectable="0" parent="jbBLu7pFhBzQeB2QMWu_-33">
          <mxGeometry x="-0.2516" y="-3" relative="1" as="geometry">
            <mxPoint x="28" y="3" as="offset" />
          </mxGeometry>
        </mxCell>
        <mxCell id="jbBLu7pFhBzQeB2QMWu_-29" style="edgeStyle=orthogonalEdgeStyle;rounded=0;orthogonalLoop=1;jettySize=auto;html=1;exitX=0.5;exitY=0;exitDx=0;exitDy=0;exitPerimeter=0;startArrow=classic;startFill=1;" edge="1" parent="1" source="jbBLu7pFhBzQeB2QMWu_-9" target="jbBLu7pFhBzQeB2QMWu_-24">
          <mxGeometry relative="1" as="geometry">
            <Array as="points">
              <mxPoint x="370" y="410" />
              <mxPoint x="310" y="410" />
            </Array>
          </mxGeometry>
        </mxCell>
        <mxCell id="jbBLu7pFhBzQeB2QMWu_-45" value="AugerTask&lt;div&gt;(Data Retrieval)&lt;/div&gt;" style="edgeLabel;html=1;align=center;verticalAlign=middle;resizable=0;points=[];" vertex="1" connectable="0" parent="jbBLu7pFhBzQeB2QMWu_-29">
          <mxGeometry x="0.1948" y="-1" relative="1" as="geometry">
            <mxPoint as="offset" />
          </mxGeometry>
        </mxCell>
        <mxCell id="jbBLu7pFhBzQeB2QMWu_-30" style="edgeStyle=orthogonalEdgeStyle;rounded=0;orthogonalLoop=1;jettySize=auto;html=1;exitX=0.5;exitY=0;exitDx=0;exitDy=0;exitPerimeter=0;startArrow=classic;startFill=1;" edge="1" parent="1" source="jbBLu7pFhBzQeB2QMWu_-9" target="jbBLu7pFhBzQeB2QMWu_-6">
          <mxGeometry relative="1" as="geometry">
            <Array as="points">
              <mxPoint x="370" y="410" />
              <mxPoint x="430" y="410" />
            </Array>
          </mxGeometry>
        </mxCell>
        <mxCell id="jbBLu7pFhBzQeB2QMWu_-36" value="Task Queues&amp;nbsp;&lt;div&gt;/ Status&lt;/div&gt;" style="edgeLabel;html=1;align=center;verticalAlign=middle;resizable=0;points=[];" vertex="1" connectable="0" parent="jbBLu7pFhBzQeB2QMWu_-30">
          <mxGeometry x="0.2304" y="-1" relative="1" as="geometry">
            <mxPoint x="4" y="13" as="offset" />
          </mxGeometry>
        </mxCell>
        <mxCell id="jbBLu7pFhBzQeB2QMWu_-9" value="Api Nodes" style="aspect=fixed;sketch=0;html=1;dashed=0;whitespace=wrap;verticalLabelPosition=bottom;verticalAlign=top;fillColor=#2875E2;strokeColor=#ffffff;points=[[0.005,0.63,0],[0.1,0.2,0],[0.9,0.2,0],[0.5,0,0],[0.995,0.63,0],[0.72,0.99,0],[0.5,1,0],[0.28,0.99,0]];shape=mxgraph.kubernetes.icon2;prIcon=api" vertex="1" parent="1">
          <mxGeometry x="328.03999999999996" y="459" width="83.33" height="80" as="geometry" />
        </mxCell>
        <mxCell id="jbBLu7pFhBzQeB2QMWu_-11" value="Fields (Data Sources)" style="swimlane;whiteSpace=wrap;html=1;" vertex="1" parent="1">
          <mxGeometry x="600" y="264" width="240" height="240" as="geometry" />
        </mxCell>
        <mxCell id="jbBLu7pFhBzQeB2QMWu_-13" value="AWS" style="ellipse;shape=cloud;whiteSpace=wrap;html=1;" vertex="1" parent="jbBLu7pFhBzQeB2QMWu_-11">
          <mxGeometry y="40" width="120" height="80" as="geometry" />
        </mxCell>
        <mxCell id="jbBLu7pFhBzQeB2QMWu_-14" value="Azure" style="ellipse;shape=cloud;whiteSpace=wrap;html=1;" vertex="1" parent="jbBLu7pFhBzQeB2QMWu_-11">
          <mxGeometry x="120" y="40" width="120" height="80" as="geometry" />
        </mxCell>
        <mxCell id="jbBLu7pFhBzQeB2QMWu_-15" value="IBM" style="ellipse;shape=cloud;whiteSpace=wrap;html=1;" vertex="1" parent="jbBLu7pFhBzQeB2QMWu_-11">
          <mxGeometry y="140" width="120" height="80" as="geometry" />
        </mxCell>
        <mxCell id="jbBLu7pFhBzQeB2QMWu_-16" value="Google" style="ellipse;shape=cloud;whiteSpace=wrap;html=1;" vertex="1" parent="jbBLu7pFhBzQeB2QMWu_-11">
          <mxGeometry x="120" y="140" width="120" height="80" as="geometry" />
        </mxCell>
        <mxCell id="jbBLu7pFhBzQeB2QMWu_-31" style="edgeStyle=orthogonalEdgeStyle;rounded=0;orthogonalLoop=1;jettySize=auto;html=1;exitX=1;exitY=0.53;exitDx=0;exitDy=0;exitPerimeter=0;startArrow=classic;startFill=1;" edge="1" parent="1" source="jbBLu7pFhBzQeB2QMWu_-6" target="jbBLu7pFhBzQeB2QMWu_-38">
          <mxGeometry relative="1" as="geometry">
            <mxPoint x="681" y="165.05714285714282" as="targetPoint" />
          </mxGeometry>
        </mxCell>
        <mxCell id="jbBLu7pFhBzQeB2QMWu_-39" value="Get/Update Job Queue" style="edgeLabel;html=1;align=center;verticalAlign=middle;resizable=0;points=[];" vertex="1" connectable="0" parent="jbBLu7pFhBzQeB2QMWu_-31">
          <mxGeometry x="-0.1804" y="-2" relative="1" as="geometry">
            <mxPoint x="35" y="-2" as="offset" />
          </mxGeometry>
        </mxCell>
        <mxCell id="jbBLu7pFhBzQeB2QMWu_-34" value="Consumers (users)" style="aspect=fixed;sketch=0;html=1;dashed=0;whitespace=wrap;verticalLabelPosition=bottom;verticalAlign=top;fillColor=#2875E2;strokeColor=#ffffff;points=[[0.005,0.63,0],[0.1,0.2,0],[0.9,0.2,0],[0.5,0,0],[0.995,0.63,0],[0.72,0.99,0],[0.5,1,0],[0.28,0.99,0]];shape=mxgraph.kubernetes.icon2;prIcon=user" vertex="1" parent="1">
          <mxGeometry x="50" y="456" width="89.59" height="86" as="geometry" />
        </mxCell>
        <mxCell id="jbBLu7pFhBzQeB2QMWu_-35" style="edgeStyle=orthogonalEdgeStyle;rounded=0;orthogonalLoop=1;jettySize=auto;html=1;exitX=0.995;exitY=0.63;exitDx=0;exitDy=0;exitPerimeter=0;entryX=0.005;entryY=0.63;entryDx=0;entryDy=0;entryPerimeter=0;startArrow=classic;startFill=1;" edge="1" parent="1" source="jbBLu7pFhBzQeB2QMWu_-34" target="jbBLu7pFhBzQeB2QMWu_-9">
          <mxGeometry relative="1" as="geometry" />
        </mxCell>
        <mxCell id="jbBLu7pFhBzQeB2QMWu_-38" value="Harvester (Agent)" style="outlineConnect=0;dashed=0;verticalLabelPosition=bottom;verticalAlign=top;align=center;html=1;shape=mxgraph.aws3.worker;fillColor=#D9A741;gradientColor=none;" vertex="1" parent="1">
          <mxGeometry x="690" y="133" width="60" height="63" as="geometry" />
        </mxCell>
      </root>
    </mxGraphModel>
  </diagram>
</mxfile>
